<svg width="64" height="64" viewBox="0 0 64 64" fill="none" xmlns="http://www.w3.org/2000/svg">
<path d="M46.5334 60.6667C43.52 60.6667 40.3467 59.9467 37.0667 58.56C33.8667 57.2 30.64 55.3333 27.4934 53.0667C24.3734 50.7733 21.36 48.2133 18.5067 45.4133C15.68 42.56 13.12 39.5467 10.8534 36.4533C8.56004 33.2533 6.72004 30.0533 5.41337 26.96C4.02671 23.6533 3.33337 20.4533 3.33337 17.44C3.33337 15.36 3.70671 13.3867 4.42671 11.5467C5.17337 9.65334 6.37337 7.89334 8.00004 6.37334C10.0534 4.34668 12.4 3.33334 14.9067 3.33334C15.9467 3.33334 17.0134 3.57334 17.92 4.00001C18.96 4.48001 19.84 5.20001 20.48 6.16001L26.6667 14.88C27.2267 15.6533 27.6534 16.4 27.9467 17.1467C28.2934 17.9467 28.48 18.7467 28.48 19.52C28.48 20.5333 28.1867 21.52 27.6267 22.4533C27.2267 23.1733 26.6134 23.9467 25.84 24.72L24.0267 26.6133C24.0534 26.6933 24.08 26.7467 24.1067 26.8C24.4267 27.36 25.0667 28.32 26.2934 29.76C27.6 31.2533 28.8267 32.6133 30.0534 33.8667C31.6267 35.4133 32.9334 36.64 34.16 37.6533C35.68 38.9333 36.6667 39.5733 37.2534 39.8667L37.2 40L39.1467 38.08C39.9734 37.2533 40.7734 36.64 41.5467 36.24C43.0134 35.3333 44.88 35.1733 46.7467 35.9467C47.44 36.24 48.1867 36.64 48.9867 37.2L57.84 43.4933C58.8267 44.16 59.5467 45.0133 59.9734 46.0267C60.3734 47.04 60.56 47.9733 60.56 48.9067C60.56 50.1867 60.2667 51.4667 59.7067 52.6667C59.1467 53.8667 58.4534 54.9067 57.5734 55.8667C56.0534 57.5467 54.4 58.7467 52.48 59.52C50.64 60.2667 48.64 60.6667 46.5334 60.6667ZM14.9067 7.33334C13.44 7.33334 12.08 7.97334 10.7734 9.25334C9.54671 10.4 8.69337 11.6533 8.16004 13.0133C7.60004 14.4 7.33337 15.8667 7.33337 17.44C7.33337 19.92 7.92004 22.6133 9.09337 25.3867C10.2934 28.2133 11.9734 31.1467 14.1067 34.08C16.24 37.0133 18.6667 39.8667 21.3334 42.56C24 45.2 26.88 47.6533 29.84 49.8133C32.72 51.92 35.68 53.6267 38.6134 54.8533C43.1734 56.8 47.44 57.2533 50.96 55.7867C52.32 55.2267 53.52 54.3733 54.6134 53.1467C55.2267 52.48 55.7067 51.76 56.1067 50.9067C56.4267 50.24 56.5867 49.5467 56.5867 48.8533C56.5867 48.4267 56.5067 48 56.2934 47.52C56.2134 47.36 56.0534 47.0667 55.5467 46.72L46.6934 40.4267C46.16 40.0533 45.68 39.7867 45.2267 39.6C44.64 39.36 44.4 39.12 43.4934 39.68C42.96 39.9467 42.48 40.3467 41.9467 40.88L39.92 42.88C38.88 43.8933 37.28 44.1333 36.0534 43.68L35.3334 43.36C34.24 42.7733 32.96 41.8667 31.5467 40.6667C30.2667 39.5733 28.88 38.2933 27.2 36.64C25.8934 35.3067 24.5867 33.8933 23.2267 32.32C21.9734 30.8533 21.0667 29.6 20.5067 28.56L20.1867 27.76C20.0267 27.1467 19.9734 26.8 19.9734 26.4267C19.9734 25.4667 20.32 24.6133 20.9867 23.9467L22.9867 21.8667C23.52 21.3333 23.92 20.8267 24.1867 20.3733C24.4 20.0267 24.48 19.7333 24.48 19.4667C24.48 19.2533 24.4 18.9333 24.2667 18.6133C24.08 18.1867 23.7867 17.7067 23.4134 17.2L17.2267 8.45334C16.96 8.08001 16.64 7.81334 16.24 7.62668C15.8134 7.44001 15.36 7.33334 14.9067 7.33334ZM37.2 40.0267L36.7734 41.84L37.4934 39.9733C37.36 39.9467 37.2534 39.9733 37.2 40.0267Z" fill="#292D32"/>
</svg>
