<svg width="24" height="24" viewBox="0 0 24 24" fill="none" xmlns="http://www.w3.org/2000/svg">
<path d="M20.6682 7.80205C20.4578 7.62598 20.1924 7.52953 19.9182 7.52953C19.6441 7.52953 19.3787 7.62598 19.1683 7.80205L11.9691 14.2793L4.79981 7.78702C4.59357 7.60219 4.32659 7.5 4.04989 7.5C3.77319 7.5 3.50621 7.60219 3.29997 7.78702V7.78702C3.20735 7.86748 3.13275 7.96664 3.08106 8.07801C3.02936 8.18938 3.00174 8.31043 3 8.43324C3.00094 8.55403 3.02828 8.67313 3.08011 8.78219C3.13193 8.89124 3.20698 8.98758 3.29997 9.06444L11.2491 16.218C11.4568 16.3998 11.7233 16.5 11.9991 16.5C12.2748 16.5 12.5413 16.3998 12.749 16.218L20.6982 9.07947C20.7926 9.00049 20.8686 8.90166 20.9208 8.79C20.973 8.67833 21 8.55654 21 8.43324C21 8.30995 20.973 8.18816 20.9208 8.07649C20.8686 7.96483 20.7926 7.866 20.6982 7.78702L20.6682 7.80205Z" fill="#37393D"/>
</svg>
