<svg width="1440" height="702" viewBox="0 0 1440 702" fill="none" xmlns="http://www.w3.org/2000/svg">
<path d="M0 0.467773H48C96 0.467773 192 0.467773 288 32.4678C384 64.4678 480 128.468 576 160.468C672 192.468 768 192.468 864 171.168C960 149.468 1056 107.468 1152 91.1678C1248 75.4678 1344 85.4678 1392 91.1678L1440 96.4678V701.468H1392C1344 701.468 1248 701.468 1152 701.468C1056 701.468 960 701.468 864 701.468C768 701.468 672 701.468 576 701.468C480 701.468 384 701.468 288 701.468C192 701.468 96 701.468 48 701.468H0V0.467773Z" fill="#8B58D0"/>
</svg>
