<svg width="32" height="32" viewBox="0 0 32 32" fill="none" xmlns="http://www.w3.org/2000/svg">
<path fill-rule="evenodd" clip-rule="evenodd" d="M16 2.66669C8.63332 2.66669 2.66666 8.63335 2.66666 16C2.66666 21.9 6.48332 26.8834 11.7833 28.65C12.45 28.7667 12.7 28.3667 12.7 28.0167C12.7 27.7 12.6833 26.65 12.6833 25.5334C9.33332 26.15 8.46666 24.7167 8.19999 23.9667C8.04999 23.5834 7.39999 22.4 6.83332 22.0834C6.36666 21.8334 5.69999 21.2167 6.81666 21.2C7.86666 21.1834 8.61666 22.1667 8.86666 22.5667C10.0667 24.5834 11.9833 24.0167 12.75 23.6667C12.8667 22.8 13.2167 22.2167 13.6 21.8834C10.6333 21.55 7.53332 20.4 7.53332 15.3C7.53332 13.85 8.04999 12.65 8.89999 11.7167C8.76666 11.3834 8.29999 10.0167 9.03332 8.18335C9.03332 8.18335 10.15 7.83335 12.7 9.55002C13.7667 9.25002 14.9 9.10002 16.0333 9.10002C17.1667 9.10002 18.3 9.25002 19.3667 9.55002C21.9167 7.81669 23.0333 8.18335 23.0333 8.18335C23.7667 10.0167 23.3 11.3834 23.1667 11.7167C24.0167 12.65 24.5333 13.8334 24.5333 15.3C24.5333 20.4167 21.4167 21.55 18.45 21.8834C18.9333 22.3 19.35 23.1 19.35 24.35C19.35 26.1334 19.3333 27.5667 19.3333 28.0167C19.3333 28.3667 19.5833 28.7834 20.25 28.65C22.8969 27.7564 25.1969 26.0553 26.8264 23.7861C28.4558 21.5168 29.3326 18.7937 29.3333 16C29.3333 8.63335 23.3667 2.66669 16 2.66669Z" fill="white"/>
</svg>
