<svg width="32" height="32" viewBox="0 0 32 32" fill="none" xmlns="http://www.w3.org/2000/svg">
<path fill-rule="evenodd" clip-rule="evenodd" d="M16 2.66669C12.3787 2.66669 11.9253 2.6818 10.5031 2.74669C9.08355 2.81158 8.11377 3.03735 7.26577 3.36713C6.37688 3.70135 5.57066 4.2258 4.90399 4.90491C4.22596 5.57081 3.7012 6.37646 3.36621 7.2658C3.03821 8.1138 2.81155 9.08446 2.74666 10.504C2.68266 11.9254 2.66666 12.3778 2.66666 16C2.66666 19.6222 2.68177 20.0747 2.74666 21.4969C2.81155 22.9165 3.03732 23.8862 3.3671 24.7342C3.70132 25.6231 4.22577 26.4294 4.90488 27.096C5.57079 27.774 6.37644 28.2988 7.26577 28.6338C8.11377 28.9627 9.08355 29.1885 10.5031 29.2534C11.9253 29.3182 12.3787 29.3334 16 29.3334C19.6213 29.3334 20.0747 29.3182 21.4969 29.2534C22.9164 29.1885 23.8862 28.9627 24.7342 28.6329C25.6231 28.2987 26.4293 27.7742 27.096 27.0951C27.774 26.4292 28.2988 25.6236 28.6338 24.7342C28.9627 23.8862 29.1884 22.9165 29.2533 21.4969C29.3182 20.0747 29.3333 19.6214 29.3333 16C29.3333 12.3787 29.3182 11.9254 29.2533 10.5031C29.1884 9.08358 28.9627 8.1138 28.6329 7.2658C28.2981 6.37608 27.7733 5.57008 27.0951 4.90402C26.4292 4.22599 25.6235 3.70123 24.7342 3.36624C23.8862 3.03824 22.9155 2.81158 21.496 2.74669C20.0747 2.68269 19.6222 2.66669 16 2.66669ZM16 5.06935C19.56 5.06935 19.9822 5.08269 21.3884 5.14669C22.688 5.20624 23.3938 5.42224 23.864 5.60624C24.4862 5.84713 24.9307 6.13691 25.3973 6.60269C25.864 7.06935 26.1529 7.5138 26.3938 8.13602C26.5769 8.60624 26.7938 9.31202 26.8533 10.6116C26.9173 12.0178 26.9307 12.44 26.9307 16C26.9307 19.56 26.9173 19.9822 26.8533 21.3885C26.7938 22.688 26.5778 23.3938 26.3938 23.864C26.1804 24.4432 25.8399 24.9671 25.3973 25.3974C24.9672 25.84 24.4432 26.1805 23.864 26.3938C23.3938 26.5769 22.688 26.7938 21.3884 26.8534C19.9822 26.9174 19.5609 26.9307 16 26.9307C12.4391 26.9307 12.0178 26.9174 10.6115 26.8534C9.31199 26.7938 8.60621 26.5778 8.13599 26.3938C7.55684 26.1804 7.03288 25.8399 6.60266 25.3974C6.16015 24.9671 5.81966 24.4431 5.60621 23.864C5.4231 23.3938 5.20621 22.688 5.14666 21.3885C5.08266 19.9822 5.06932 19.56 5.06932 16C5.06932 12.44 5.08266 12.0178 5.14666 10.6116C5.20621 9.31202 5.42221 8.60624 5.60621 8.13602C5.8471 7.5138 6.13688 7.06935 6.60266 6.60269C7.03283 6.16006 7.5568 5.81955 8.13599 5.60624C8.60621 5.42313 9.31199 5.20624 10.6115 5.14669C12.0178 5.08269 12.44 5.06935 16 5.06935Z" fill="white"/>
<path fill-rule="evenodd" clip-rule="evenodd" d="M16 20.4489C15.4158 20.4489 14.8373 20.3338 14.2975 20.1103C13.7577 19.8867 13.2673 19.559 12.8542 19.1459C12.4411 18.7327 12.1134 18.2423 11.8898 17.7025C11.6662 17.1628 11.5511 16.5843 11.5511 16C11.5511 15.4158 11.6662 14.8373 11.8898 14.2975C12.1134 13.7577 12.4411 13.2673 12.8542 12.8542C13.2673 12.4411 13.7577 12.1134 14.2975 11.8898C14.8373 11.6662 15.4158 11.5511 16 11.5511C17.1799 11.5511 18.3115 12.0199 19.1459 12.8542C19.9802 13.6885 20.4489 14.8201 20.4489 16C20.4489 17.1799 19.9802 18.3115 19.1459 19.1459C18.3115 19.9802 17.1799 20.4489 16 20.4489ZM16 9.14669C14.1824 9.14669 12.4392 9.86873 11.154 11.154C9.86872 12.4392 9.14668 14.1824 9.14668 16C9.14668 17.8176 9.86872 19.5608 11.154 20.8461C12.4392 22.1313 14.1824 22.8534 16 22.8534C17.8176 22.8534 19.5608 22.1313 20.846 20.8461C22.1313 19.5608 22.8533 17.8176 22.8533 16C22.8533 14.1824 22.1313 12.4392 20.846 11.154C19.5608 9.86873 17.8176 9.14669 16 9.14669ZM24.8471 9.02224C24.8471 9.45189 24.6764 9.86395 24.3726 10.1678C24.0688 10.4716 23.6568 10.6422 23.2271 10.6422C22.7975 10.6422 22.3854 10.4716 22.0816 10.1678C21.7778 9.86395 21.6071 9.45189 21.6071 9.02224C21.6071 8.59259 21.7778 8.18054 22.0816 7.87673C22.3854 7.57292 22.7975 7.40224 23.2271 7.40224C23.6568 7.40224 24.0688 7.57292 24.3726 7.87673C24.6764 8.18054 24.8471 8.59259 24.8471 9.02224Z" fill="white"/>
</svg>
