<svg width="128" height="128" viewBox="0 0 128 128" fill="none" xmlns="http://www.w3.org/2000/svg">
<path d="M40.3352 78.188H38.6502V68.538C38.6502 67.776 38.7002 66.848 38.7902 65.753H38.7522C38.5942 66.393 38.4492 66.857 38.3222 67.144L33.4202 78.188H32.5992L27.6882 67.224C27.5502 66.918 27.4052 66.425 27.2582 65.753H27.2222C27.2742 66.329 27.3032 67.262 27.3032 68.557V78.188H25.6772V63.817H27.9022L32.3112 73.838C32.6432 74.592 32.8582 75.166 32.9622 75.558H33.0312C33.2434 74.9641 33.4728 74.3765 33.7192 73.796L38.2242 63.817H40.3342V78.188H40.3352V78.188ZM45.5232 78.188H43.8842V67.925H45.5232V78.188ZM45.8062 64.246C45.8062 64.549 45.7002 64.801 45.4892 65.009C45.3899 65.1104 45.2709 65.1904 45.1395 65.244C45.0081 65.2977 44.8671 65.3239 44.7252 65.321C44.5854 65.3232 44.4466 65.2978 44.3166 65.2461C44.1867 65.1945 44.0683 65.1176 43.9682 65.02C43.8646 64.9202 43.7833 64.7997 43.7293 64.6663C43.6754 64.533 43.6501 64.3898 43.6552 64.246C43.6552 63.95 43.7592 63.697 43.9682 63.492C44.1772 63.287 44.4322 63.187 44.7252 63.187C45.0252 63.187 45.2822 63.286 45.4892 63.492C45.7002 63.697 45.8062 63.95 45.8062 64.246ZM55.7642 77.713C54.9782 78.196 54.0382 78.435 52.9522 78.435C51.4802 78.435 50.2972 77.947 49.3912 76.971C48.5122 76.024 48.0702 74.802 48.0702 73.304C48.0702 71.623 48.5502 70.262 49.5202 69.227C50.4842 68.191 51.7812 67.674 53.4122 67.674C54.3042 67.674 55.0952 67.848 55.7872 68.195V69.882C55.0212 69.344 54.2112 69.077 53.3422 69.077C52.2972 69.077 51.4462 69.442 50.7872 70.17C50.1002 70.915 49.7532 71.912 49.7532 73.155C49.7532 74.349 50.0702 75.295 50.7012 75.992C51.3342 76.686 52.1772 77.034 53.2392 77.034C54.1362 77.034 54.9772 76.739 55.7632 76.152V77.713H55.7642V77.713ZM63.6042 69.59C63.3152 69.367 62.8982 69.259 62.3492 69.259C61.6812 69.259 61.1202 69.557 60.6662 70.16C60.1502 70.833 59.8952 71.764 59.8952 72.955V78.187H58.2512V67.925H59.8952V70.041H59.9342C60.1752 69.292 60.5482 68.716 61.0462 68.308C61.4886 67.9432 62.0448 67.7448 62.6182 67.747C63.0562 67.747 63.3802 67.794 63.6022 67.887L63.6042 69.59V69.59ZM72.7582 73.075C72.7582 71.762 72.4622 70.758 71.8682 70.069C71.2932 69.407 70.4882 69.077 69.4522 69.077C68.4312 69.077 67.6112 69.411 66.9992 70.08C66.3522 70.795 66.0282 71.805 66.0282 73.115C66.0282 74.343 66.3362 75.307 66.9582 75.994C67.5762 76.686 68.4082 77.033 69.4522 77.033C70.5322 77.033 71.3592 76.681 71.9262 75.982C72.4812 75.298 72.7582 74.33 72.7582 73.075ZM74.4432 73.018C74.4432 74.653 73.9812 75.967 73.0612 76.952C72.1372 77.941 70.8942 78.435 69.3312 78.435C67.7912 78.435 66.5642 77.941 65.6662 76.952C64.7852 75.999 64.3432 74.741 64.3432 73.176C64.3432 71.39 64.8432 70.014 65.8462 69.037C66.7752 68.131 68.0162 67.674 69.5722 67.674C71.1022 67.674 72.2982 68.151 73.1592 69.096C74.0122 70.046 74.4432 71.354 74.4432 73.018ZM82.5892 75.442C82.5892 76.282 82.2762 76.978 81.6472 77.533C80.9602 78.134 80.0172 78.434 78.8312 78.434C77.8602 78.434 77.0092 78.231 76.2862 77.816V76.05C77.0902 76.704 77.9782 77.033 78.9532 77.033C80.2542 77.033 80.9052 76.554 80.9052 75.599C80.9107 75.4123 80.8749 75.2267 80.8004 75.0554C80.7259 74.8841 80.6145 74.7313 80.4742 74.608C80.1852 74.346 79.6232 74.032 78.7892 73.665C77.9302 73.289 77.3172 72.903 76.9562 72.502C76.5222 72.026 76.3042 71.409 76.3042 70.648C76.3042 69.796 76.6452 69.087 77.3182 68.523C77.9932 67.956 78.8602 67.673 79.9242 67.673C80.7392 67.673 81.4702 67.832 82.1182 68.154V69.808C81.4412 69.32 80.6672 69.076 79.7892 69.076C79.2452 69.076 78.8082 69.212 78.4822 69.475C78.1532 69.745 77.9882 70.089 77.9882 70.509C77.9882 70.964 78.1262 71.317 78.4002 71.57C78.6442 71.803 79.1612 72.089 79.9412 72.422C80.8172 72.789 81.4502 73.17 81.8362 73.559C82.3362 74.053 82.5892 74.68 82.5892 75.442M92.6292 73.075C92.6292 71.762 92.3322 70.758 91.7372 70.069C91.1622 69.407 90.3562 69.077 89.3222 69.077C88.3012 69.077 87.4812 69.411 86.8662 70.08C86.2202 70.795 85.8972 71.805 85.8972 73.115C85.8972 74.343 86.2062 75.307 86.8212 75.994C87.4472 76.686 88.2802 77.033 89.3222 77.033C90.4042 77.033 91.2282 76.681 91.7962 75.982C92.3512 75.298 92.6292 74.33 92.6292 73.075M94.3172 73.018C94.3172 74.653 93.8512 75.967 92.9292 76.952C92.0092 77.941 90.7662 78.435 89.2022 78.435C87.6602 78.435 86.4342 77.941 85.5352 76.952C84.6542 75.999 84.2122 74.741 84.2122 73.176C84.2122 71.39 84.7162 70.014 85.7142 69.037C86.6422 68.131 87.8852 67.674 89.4422 67.674C90.9732 67.674 92.1672 68.151 93.0262 69.096C93.8812 70.046 94.3172 71.354 94.3172 73.018M101.555 64.438C101.221 64.2551 100.845 64.162 100.464 64.168C99.3142 64.168 98.7432 64.892 98.7432 66.343V67.925H101.148V69.317H98.7432V78.188H97.0982V69.317H95.3532V67.925H97.0982V66.261C97.0982 65.132 97.4442 64.245 98.1482 63.607C98.7512 63.052 99.4882 62.776 100.365 62.776C100.873 62.776 101.267 62.837 101.554 62.954V64.438H101.555ZM108.039 78.085C107.651 78.307 107.135 78.418 106.496 78.418C104.705 78.418 103.809 77.408 103.809 75.389V69.319H102.048V67.925H103.809V65.421L105.455 64.888V67.925H108.038V69.319H105.455V75.11C105.455 75.798 105.567 76.29 105.803 76.575C106.04 76.87 106.428 77.014 106.976 77.014C107.385 77.014 107.739 76.905 108.039 76.683V78.085ZM19.2372 118.242C19.2372 119.047 18.9512 119.742 18.3702 120.329C18.0994 120.613 17.7729 120.837 17.4112 120.989C17.0494 121.14 16.6603 121.215 16.2682 121.209C15.8839 121.215 15.5027 121.139 15.1494 120.987C14.7962 120.836 14.4789 120.611 14.2182 120.329C13.9467 120.054 13.7326 119.728 13.5882 119.37C13.4438 119.012 13.3721 118.628 13.3772 118.242C13.3772 117.415 13.6562 116.717 14.2182 116.139C14.4803 115.859 14.7982 115.637 15.1513 115.488C15.5044 115.339 15.8849 115.265 16.2682 115.272C17.0912 115.272 17.7922 115.564 18.3702 116.15C18.9512 116.738 19.2372 117.436 19.2372 118.242ZM56.0182 120.606H50.6602L31.2122 90.572C30.7445 89.8232 30.3497 89.0312 30.0332 88.207H29.8732C30.0122 89.011 30.0822 90.738 30.0822 93.382V120.606H25.6662V82.926H31.3982L50.2632 112.486C51.0142 113.659 51.5282 114.499 51.7882 115.005H51.8922C51.7172 113.922 51.6262 112.073 51.6262 109.465V82.926H56.0162V120.606H56.0182ZM84.3322 120.606H64.3612V82.926H83.4652V86.919H68.7752V99.453H82.3872V103.448H68.7742V116.612H84.3322V120.606ZM114.623 86.919H103.769V120.607H99.3542V86.919H88.4792V82.924H114.623V86.919Z" fill="#DCDDDE"/>
<path fill-rule="evenodd" clip-rule="evenodd" d="M82.1082 46.33C82.5872 45.098 83.1302 43.885 83.5352 42.629C85.8232 35.532 88.0892 28.429 90.3402 21.32C91.2052 18.589 92.1532 15.9 93.8552 13.553C96.5472 9.84399 100.297 7.90099 104.735 7.22199C106.483 6.96226 108.248 6.82658 110.015 6.81599C115.282 6.76599 120.551 6.80099 125.819 6.80599C126.099 6.80599 126.379 6.83499 126.776 6.85799C126.647 7.16199 126.577 7.38299 126.465 7.58199C124.51 11.076 122.593 14.591 120.58 18.05C117.075 24.072 113.564 30.092 109.949 36.048C107.63 39.867 105.115 43.568 102.262 47.022C100.157 49.57 97.9412 52.006 95.1162 53.792C93.1912 55.009 91.1352 55.721 88.8012 55.709C80.5232 55.664 72.2452 55.697 63.9672 55.685C61.5062 55.681 59.3992 54.744 57.6112 53.082C55.0482 50.701 53.5182 47.67 52.2662 44.474C49.9822 38.639 48.7032 32.523 47.2352 26.46C46.5472 23.622 45.7652 20.806 45.0202 17.982C44.9722 17.799 44.8782 17.628 44.7702 17.365L44.1932 17.907C40.9652 21.114 38.1222 24.648 35.5782 28.405C34.8852 29.429 34.6522 30.779 34.2652 31.996C32.8412 36.466 31.5432 40.979 30.0012 45.407C28.5242 49.649 25.8762 53.023 21.7372 55.017C19.3372 56.1805 16.7147 56.8132 14.0482 56.872C10.0682 56.96 6.0862 56.97 2.1052 57.006C1.1532 57.015 1.1092 56.937 1.3572 56.016C3.0642 49.678 5.2272 43.502 7.9372 37.524C10.7312 31.357 14.0222 25.476 18.1682 20.105C20.9912 16.448 24.1092 13.074 28.0112 10.523C29.9902 9.22999 32.0942 8.20799 34.4882 7.93899C34.8822 7.89399 35.2812 7.86599 35.6772 7.86599C44.1552 7.86199 52.6332 7.94799 61.1102 7.82699C65.6572 7.76199 68.9492 9.68199 71.4142 13.342C72.9472 15.618 74.0442 18.103 74.9672 20.67C76.8282 25.848 77.9852 31.217 79.2922 36.548C80.0402 39.599 80.8732 42.629 81.6712 45.668C81.7312 45.896 81.8282 46.114 81.9092 46.336L82.1082 46.33V46.33Z" fill="#DCDDDE"/>
</svg>
