<svg width="40" height="38" viewBox="0 0 40 38" fill="none" xmlns="http://www.w3.org/2000/svg">
<ellipse cx="5.3238" cy="32.7933" rx="5.05451" ry="5.0838" fill="#5528AE"/>
<ellipse cx="17.96" cy="27.7096" rx="3.36968" ry="3.3892" fill="#5528AE"/>
<path fill-rule="evenodd" clip-rule="evenodd" d="M16.2148 1.86687C12.9914 3.73867 11.8826 7.8767 13.7383 11.1094L20.4619 22.8226C20.8446 23.4892 20.3633 24.3204 19.5947 24.3204H17.9797C16.1079 24.3204 14.5905 25.8378 14.5905 27.7096C14.5905 29.5814 16.1079 31.0988 17.9797 31.0988H24.6337C24.9918 31.0988 25.3226 31.2903 25.5009 31.601L27.2364 34.6243C29.0921 37.857 33.2095 38.9603 36.4328 37.0885C39.6562 35.2167 40.765 31.0786 38.9093 27.8459L25.4112 4.331C23.5555 1.09829 19.4382 -0.00493683 16.2148 1.86687Z" fill="#5528AE"/>
</svg>
