<svg width="128" height="128" viewBox="0 0 128 128" fill="none" xmlns="http://www.w3.org/2000/svg">
<path d="M66.332 70.0321C66.572 65.7901 68.659 62.0451 71.817 59.3981C74.911 56.7961 79.065 55.2051 83.626 55.2051C88.163 55.2051 92.316 56.7951 95.406 59.3981C98.569 62.0451 100.643 65.7901 100.891 70.0321C101.131 74.3821 99.368 78.4421 96.286 81.4491C93.128 84.4991 88.659 86.4261 83.626 86.4261C78.589 86.4261 74.1 84.5111 70.962 81.4491C67.868 78.4431 66.109 74.4051 66.356 70.0521L66.332 70.0321Z" fill="#DCDDDE"/>
<path d="M39.2448 79.0019C39.2728 80.6619 39.8088 83.8919 40.6048 86.4059C42.2868 91.7419 45.1418 96.6789 49.0948 101.005C53.1568 105.47 58.1688 109.06 63.9448 111.615C70.0178 114.285 76.6098 115.652 83.4498 115.652C90.2898 115.643 96.8818 114.252 102.954 111.55C108.73 108.968 113.744 105.382 117.804 100.893C121.778 96.5189 124.624 91.5859 126.295 86.2459C127.132 83.5935 127.667 80.8552 127.89 78.0829C128.098 75.3929 128.01 72.6779 127.627 69.9629C126.877 64.7316 125.031 59.7175 122.21 55.2489C119.636 51.0989 116.294 47.4889 112.32 44.4359L112.332 44.4319L72.3768 13.9259C72.3408 13.8979 72.3088 13.8699 72.2728 13.8459C69.6538 11.8439 65.2288 11.8519 62.3628 13.8539C59.4488 15.8849 59.1128 19.2389 61.7068 21.3499L61.6948 21.3579L78.3768 34.8419L27.5878 34.8929H27.5198C23.3228 34.8969 19.2808 37.6319 18.4898 41.1059C17.6698 44.6269 20.5248 47.5659 24.9018 47.5659L24.8938 47.5819L50.6298 47.5339L4.57979 82.5239C4.52379 82.5679 4.45979 82.6119 4.40379 82.6559C0.0687943 85.9499 -1.33021 91.4459 1.39979 94.8999C4.17779 98.4219 10.0658 98.4459 14.4468 94.9199L39.5048 74.5099C39.5048 74.5099 39.1368 77.2679 39.1688 78.9069L39.2448 79.0019ZM103.805 88.2209C98.6368 93.4489 91.3888 96.4309 83.5778 96.4309C75.7468 96.4429 68.4988 93.5129 63.3298 88.2889C60.8038 85.7299 58.9528 82.8159 57.8018 79.6979C56.6766 76.6298 56.2426 73.3511 56.5308 70.0959C56.8044 66.9198 57.7514 63.8384 59.3088 61.0569C60.8158 58.3429 62.8988 55.8769 65.4488 53.7899C70.4818 49.7319 76.8688 47.5099 83.5488 47.5099C90.2578 47.5019 96.6458 49.6839 101.679 53.7459C104.229 55.8209 106.304 58.2749 107.819 60.9889C109.379 63.7702 110.325 66.8539 110.593 70.0319C110.877 73.2857 110.443 76.5621 109.322 79.6299C108.175 82.7719 106.32 85.6859 103.789 88.2449L103.805 88.2209Z" fill="#DCDDDE"/>
</svg>
