<svg width="128" height="128" viewBox="0 0 128 128" fill="none" xmlns="http://www.w3.org/2000/svg">
<path d="M109.521 38.4173C109.052 38.4173 108.332 38.4173 107.928 38.4173C105.031 38.3813 99.4741 38.6912 94.4362 43.0444C82.4074 53.4588 79.6614 68.7885 59.0777 77.0624C41.9317 83.9525 20.793 77.4299 20.793 77.4299C20.793 77.4299 39.6542 76.1182 42.1551 61.7254C44.1083 50.4678 33.8668 42.475 27.438 32.32C20.9011 21.9777 19.2218 13.3867 22.3713 9.67499C31.3011 -0.869149 55.8921 27.6354 68.1011 31.4768C80.0506 35.2317 88.1155 26.511 98.011 27.7939C101.168 28.1975 102.71 29.5597 103.734 31.2966C104.079 31.8804 104.93 33.8696 105.687 34.6047C106.429 35.3254 107.416 35.8588 108.339 36.3993C109.514 37.0912 110.674 38.4173 109.521 38.4173Z" fill="#DCDDDE"/>
<path d="M53.0088 21.9273C50.0539 19.6786 47.0052 17.3219 44.007 15.1741C43.3295 14.6912 42.6521 14.2156 41.9818 13.7543C33.9458 8.25521 26.4935 4.81017 22.371 9.67503C19.2214 13.3867 20.9007 21.9777 27.4449 32.3201C27.5097 32.4282 27.5818 32.5291 27.6467 32.6372C31.0557 37.9129 40.944 50.2732 64.3818 49.7471C65.9241 48.1111 68.2665 45.0192 71.2935 41.6534C66.3854 33.7183 58.9908 26.7994 53.0088 21.9273Z" fill="#DCDDDE"/>
<path d="M76.634 59.2175C76.7277 55.7003 76.0863 52.2337 74.8683 48.8823C71.7908 49.3436 68.3241 49.6607 64.3818 49.7472C61.5133 52.7958 54.962 60.94 44.1079 68.2769C29.6575 78.0499 20.7998 77.4301 20.7998 77.4301C20.7998 77.4301 41.9458 83.9526 59.0845 77.0625C65.2322 74.5904 69.7944 71.4913 73.4845 68.0751C74.0899 67.4985 76.5043 64.4859 76.634 59.2175Z" fill="#DCDDDE"/>
<path d="M71.3009 41.6533C68.2738 45.0119 65.9243 48.111 64.3892 49.747C68.3387 49.6605 71.8054 49.3434 74.8756 48.8821C74.5153 47.8803 74.0973 46.893 73.636 45.92C72.9441 44.4713 72.1585 43.0443 71.3009 41.6533Z" fill="#DCDDDE"/>
<path d="M88.8718 28.9038C82.5439 30.8209 76.2232 34.0281 68.1007 31.4768C64.0791 30.2155 58.7097 26.2732 53.0088 21.9272C58.9908 26.7993 66.3854 33.711 71.3007 41.6534C75.7836 36.6876 81.7655 31.1381 88.8718 28.9038Z" fill="#DCDDDE"/>
<path d="M74.8759 48.8823C76.0939 52.2337 76.7353 55.7003 76.6416 59.2174C76.5047 64.4787 74.0903 67.4913 73.4849 68.0751C82.1407 60.0679 86.011 50.3454 94.4434 43.0445C96.0146 41.6895 97.629 40.7237 99.2074 40.0391H99.2002C93.6723 42.3598 87.6759 46.9508 74.8759 48.8823Z" fill="#DCDDDE"/>
<path d="M109.521 38.4173C110.674 38.4173 109.513 37.0912 108.346 36.4065C107.423 35.8588 106.436 35.3255 105.694 34.6119C104.93 33.8768 104.079 31.8804 103.74 31.3038C102.71 29.5597 101.175 28.2047 98.0179 27.8011C94.8467 27.3903 91.8629 28.0101 88.8792 28.911C81.7728 31.1453 75.7837 36.6948 71.3008 41.6606C72.1584 43.0516 72.9512 44.4714 73.6359 45.9201C74.0972 46.9002 74.5152 47.8876 74.8756 48.8822C87.6828 46.9507 93.672 42.3597 99.1999 40.039H99.2071C102.688 38.5255 105.946 38.3885 107.935 38.4173C108.339 38.4173 109.059 38.4173 109.521 38.4173Z" fill="#DCDDDE"/>
<path d="M44.1079 68.2768C54.962 60.9399 61.5133 52.7958 64.3818 49.7471C40.944 50.2732 31.0557 37.9129 27.6467 32.6372C34.0827 42.648 44.0935 50.5904 42.162 61.7255C39.6611 76.1183 20.7998 77.43 20.7998 77.43C20.7998 77.43 29.6575 78.0498 44.1079 68.2768Z" fill="#DCDDDE"/>
<path d="M97.3622 35.0229C98.3971 35.0229 99.236 34.1904 99.236 33.1634C99.236 32.1365 98.3971 31.304 97.3622 31.304C96.3272 31.304 95.4883 32.1365 95.4883 33.1634C95.4883 34.1904 96.3272 35.0229 97.3622 35.0229Z" fill="#DCDDDE"/>
<path d="M60.7208 98.7925C55.4307 98.7925 51.1353 103.059 51.1353 108.306V111.131C51.1353 116.378 55.438 120.645 60.7208 120.645H66.8181V117.192H60.7208C57.4632 117.192 54.7893 114.641 54.6235 111.448H67.1497C68.8938 111.448 70.3136 110.036 70.3136 108.306C70.3136 103.059 66.0109 98.7925 60.7208 98.7925ZM54.6235 107.996C54.7893 104.803 57.4632 102.252 60.7208 102.252C63.9785 102.252 66.6524 104.803 66.8181 107.996H54.6235Z" fill="#DCDDDE"/>
<path d="M4.11532 94.0644C2.76036 95.4626 2.01081 97.286 2.01081 99.2104V99.6716H0V103.124H2.01081V120.637H5.49189V103.124H10.1766V99.6716H5.49189V99.2104C5.49189 97.0987 7.22162 95.3113 9.27568 95.3113H11.8486V91.8518H9.27568C7.32973 91.859 5.4991 92.6374 4.11532 94.0644Z" fill="#DCDDDE"/>
<path d="M20.7999 91.8303H17.3188V120.652H20.7999V91.8303Z" fill="#DCDDDE"/>
<path d="M41.939 111.758C41.939 114.756 39.4813 117.192 36.4615 117.192C33.4417 117.192 30.984 114.756 30.984 111.758V98.7925H27.5029V111.758C27.5029 116.659 31.5173 120.645 36.4615 120.645C41.3984 120.645 45.42 116.659 45.42 111.758V98.7925H41.939V111.758Z" fill="#DCDDDE"/>
<path d="M82.7676 98.7925C77.8307 98.7925 73.8091 102.778 73.8091 107.679V120.645H77.2902V107.679C77.2902 104.681 79.7478 102.245 82.7676 102.245C85.7875 102.245 88.2451 104.681 88.2451 107.679V120.645H91.7262V107.679C91.7262 102.778 87.7046 98.7925 82.7676 98.7925Z" fill="#DCDDDE"/>
<path d="M101.802 113.293V102.252H106.515V102.245V98.7925H101.802V91.8303H98.3209V98.7925H95.229V102.245H98.3209V113.286C98.3209 117.265 101.579 120.501 105.586 120.501H107.128V117.041H105.586C103.496 117.048 101.802 115.362 101.802 113.293Z" fill="#DCDDDE"/>
<path d="M124.519 91.8303V100.659C123.006 99.4916 121.103 98.7997 119.042 98.7997C114.105 98.7997 110.083 102.785 110.083 107.686V109.113V109.632V111.765C110.083 116.666 114.105 120.652 119.042 120.652C123.978 120.652 128 116.666 128 111.765V111.138V109.632V109.113V107.686V91.8303H124.519V91.8303ZM124.519 109.625V111.131V111.758C124.519 114.756 122.061 117.192 119.042 117.192C116.022 117.192 113.564 114.756 113.564 111.758V109.625V109.106V107.679C113.564 104.681 116.022 102.245 119.042 102.245C122.061 102.245 124.519 104.681 124.519 107.679V109.106V109.625Z" fill="#DCDDDE"/>
</svg>
