<svg width="32" height="32" viewBox="0 0 32 32" fill="none" xmlns="http://www.w3.org/2000/svg">
<path d="M29.3333 7.89945C28.3527 8.33399 27.2992 8.6276 26.1917 8.76031C27.3215 8.08383 28.1883 7.0104 28.597 5.73262C27.54 6.35977 26.3691 6.81545 25.123 7.05973C24.1247 5.99804 22.7037 5.33331 21.1299 5.33331C18.1093 5.33331 15.6594 7.78318 15.6594 10.8062C15.6594 11.2337 15.7087 11.6494 15.8003 12.0511C11.2518 11.8221 7.22228 9.64348 4.52343 6.33393C4.05366 7.14429 3.78354 8.08383 3.78354 9.08445C3.78354 10.9823 4.7501 12.6582 6.21697 13.6389C5.3197 13.6095 4.47646 13.3641 3.73891 12.9542V13.0247C3.73891 15.6754 5.62388 17.8868 8.12777 18.3895C7.66739 18.514 7.1847 18.5797 6.68674 18.5797C6.33441 18.5797 5.9903 18.5469 5.65676 18.4834C6.3532 20.6561 8.37322 22.2393 10.7679 22.2816C8.89467 23.7496 6.53524 24.6245 3.97263 24.6245C3.53104 24.6245 3.09532 24.5987 2.66666 24.5482C5.08834 26.102 7.96335 27.0063 11.0521 27.0063C21.117 27.0063 26.6192 18.6702 26.6192 11.4404C26.6192 11.2055 26.6133 10.9682 26.6028 10.7334C27.6715 9.96058 28.5993 8.99872 29.331 7.90297L29.3333 7.89945Z" fill="white"/>
</svg>
